<?xml version="1.0" standalone="no"?>
<!DOCTYPE svg PUBLIC "-//W3C//DTD SVG 20010904//EN"
 "http://www.w3.org/TR/2001/REC-SVG-20010904/DTD/svg10.dtd">
<svg version="1.0" xmlns="http://www.w3.org/2000/svg"
 width="300.000000pt" height="300.000000pt" viewBox="0 0 300.000000 300.000000"
 preserveAspectRatio="xMidYMid meet">
<metadata>
Created by potrace 1.14, written by Peter Selinger 2001-2017
</metadata>
<g transform="translate(0.000000,300.000000) scale(0.100000,-0.100000)"
fill="#000000" stroke="none">
<path d="M1240 2945 c0 -8 -4 -15 -10 -15 -5 0 -10 -6 -10 -14 0 -31 -34 -75
-141 -183 -62 -62 -108 -113 -104 -113 5 0 1 -6 -10 -13 -11 -9 -15 -19 -10
-27 5 -8 4 -11 -3 -6 -19 12 -33 -33 -37 -116 -7 -163 56 -286 148 -291 27 -2
33 -6 31 -22 -1 -11 -3 -25 -3 -30 -1 -6 -16 -16 -35 -23 -48 -17 -79 -48 -74
-70 3 -11 1 -27 -4 -36 -6 -10 -5 -16 2 -16 5 0 10 -5 10 -11 0 -6 7 -17 15
-26 8 -8 13 -18 11 -22 -5 -7 16 -10 81 -11 35 0 45 -5 72 -37 17 -21 30 -40
29 -43 -2 -3 5 -16 15 -30 9 -13 17 -32 17 -42 0 -10 4 -18 10 -18 5 0 9 -3 8
-7 -2 -9 9 -45 27 -88 35 -82 44 -114 34 -121 -6 -3 -8 -12 -5 -20 3 -8 0 -13
-7 -11 -7 1 -11 -4 -10 -10 2 -7 -1 -13 -6 -13 -5 0 -16 -6 -23 -13 -25 -23
-93 -73 -120 -86 -42 -22 -184 -19 -233 4 -22 10 -44 17 -48 16 -4 0 -10 6
-13 14 -4 8 -12 15 -20 15 -14 0 -84 65 -84 78 0 4 -10 16 -23 27 -13 11 -35
41 -50 68 -15 26 -32 47 -37 47 -9 0 -17 21 -25 59 -3 17 5 23 53 38 79 25
100 42 126 107 17 41 26 52 34 44 8 -8 16 -8 29 3 10 7 15 9 11 5 -8 -9 71
-56 94 -56 7 -1 32 -25 55 -54 49 -61 100 -84 130 -59 10 8 11 11 3 7 -13 -7
-13 -5 -1 9 8 11 9 17 3 17 -6 0 -9 7 -5 16 3 9 0 20 -8 25 -22 14 -30 10 -20
-9 8 -15 6 -18 -8 -17 -24 1 -44 22 -60 61 -7 18 -23 41 -35 52 -29 24 -92 46
-107 36 -7 -4 -9 -3 -6 3 5 7 -6 11 -27 11 -44 0 -61 9 -47 26 12 14 -36 99
-60 108 -30 10 -111 9 -125 -2 -7 -7 -14 -9 -14 -4 0 5 -9 -4 -19 -20 -11 -17
-18 -33 -15 -37 2 -4 -1 -11 -7 -15 -8 -5 -8 -8 0 -13 6 -4 12 -19 13 -34 2
-25 10 -31 31 -28 4 0 7 -4 7 -10 0 -5 16 -17 35 -25 40 -16 43 -24 16 -41
-22 -14 -138 -36 -150 -29 -11 7 -53 -43 -46 -54 4 -6 2 -10 -4 -10 -5 0 -9
-9 -8 -20 1 -11 5 -20 9 -20 4 0 8 -7 8 -15 0 -18 20 -57 35 -67 6 -5 4 -8 -4
-8 -9 0 -7 -6 7 -19 12 -10 22 -26 22 -35 0 -10 5 -14 10 -11 6 3 10 -3 10
-14 0 -11 4 -22 9 -25 5 -3 18 -24 30 -47 12 -22 39 -64 61 -93 22 -29 40 -57
40 -61 0 -11 81 -85 92 -85 4 0 8 -8 8 -17 0 -15 2 -16 10 -3 8 13 10 13 10
-1 0 -9 6 -16 13 -17 10 0 53 -9 82 -16 6 -2 18 -6 28 -11 9 -4 23 -2 30 4 10
8 17 7 27 -2 7 -6 10 -7 7 -1 -4 7 5 11 23 12 16 0 35 4 42 8 7 4 26 9 43 11
16 2 39 5 50 7 20 2 68 21 88 33 6 3 7 1 3 -5 -3 -5 0 -13 6 -15 10 -4 10 -6
1 -6 -7 -1 -13 -8 -13 -17 0 -9 -13 -36 -30 -61 -16 -24 -30 -48 -30 -54 0 -5
-4 -9 -8 -9 -5 0 -15 -12 -23 -27 -18 -37 -24 -42 -90 -86 -57 -37 -95 -54
-114 -52 -39 6 -95 50 -95 75 0 6 -4 10 -10 10 -5 0 -9 10 -9 22 2 40 -18 108
-31 108 -5 0 -7 9 -5 20 4 23 -82 120 -108 120 -9 0 -17 5 -17 10 0 6 -5 10
-11 10 -5 0 -7 -5 -4 -11 4 -6 -2 -5 -13 2 -17 11 -24 10 -38 -2 -11 -9 -15
-9 -10 -1 14 24 -12 12 -44 -21 -18 -17 -30 -25 -26 -17 4 8 -2 4 -13 -10 -32
-37 -65 -102 -66 -128 -1 -31 -30 -49 -40 -24 -11 24 -12 62 -3 62 4 0 8 6 8
14 0 7 9 25 20 38 10 14 16 28 13 32 -3 3 -1 6 5 6 14 0 26 81 18 115 -4 14
-22 41 -41 61 -19 20 -35 40 -35 45 0 5 -4 9 -10 9 -5 0 -10 5 -10 11 0 6 -7
17 -15 25 -13 14 -13 19 1 45 10 20 20 29 30 25 9 -3 18 -6 20 -6 2 0 4 -7 4
-16 0 -11 -6 -15 -20 -11 -15 4 -20 0 -20 -16 0 -11 3 -17 7 -14 3 4 12 -1 19
-12 16 -22 63 -23 88 -2 12 10 15 22 10 40 -4 14 -6 34 -6 44 0 9 -3 17 -9 17
-5 0 -9 6 -9 13 0 19 -53 47 -88 47 -47 0 -78 -15 -107 -54 -47 -62 -46 -118
6 -176 34 -39 59 -89 59 -120 0 -11 -16 -43 -35 -71 -38 -56 -43 -84 -30 -165
8 -50 80 -144 111 -144 7 0 14 -4 14 -8 0 -5 16 -8 35 -7 33 2 112 51 101 63
-3 3 1 14 11 24 9 10 13 18 10 18 -4 0 2 15 13 33 11 17 20 39 20 47 0 23 48
22 55 -1 4 -11 10 -17 14 -15 4 3 8 -7 9 -22 4 -41 7 -56 15 -69 4 -6 3 -14
-2 -18 -6 -3 -1 -26 11 -55 12 -28 25 -47 31 -43 6 4 8 0 4 -9 -3 -9 -1 -20 5
-26 8 -8 7 -13 -5 -18 -9 -3 -14 -10 -11 -15 3 -5 -3 -6 -12 -2 -12 4 -15 3
-10 -5 4 -7 2 -12 -4 -12 -6 0 -8 -5 -4 -12 4 -7 3 -8 -4 -4 -15 9 -37 -36
-52 -107 -6 -33 -20 -67 -31 -78 -10 -10 -19 -23 -19 -28 0 -5 -16 -16 -35
-25 -38 -18 -75 -14 -98 12 -39 44 -53 136 -26 168 12 15 46 18 73 8 17 -7 22
-54 6 -54 -5 0 -10 6 -10 14 0 20 -16 29 -40 21 -15 -5 -20 -15 -20 -43 0 -20
4 -42 8 -47 13 -19 80 -18 106 2 36 26 36 90 1 132 -25 29 -35 32 -114 31 -37
0 -88 -40 -99 -77 -13 -41 -7 -164 9 -173 6 -4 10 -10 10 -14 -3 -20 0 -26 9
-21 5 3 10 -1 10 -10 0 -8 11 -20 24 -25 13 -5 27 -14 31 -20 17 -28 155 -63
155 -40 0 5 8 6 19 3 10 -3 22 0 25 6 4 5 14 7 23 4 10 -4 14 -2 10 4 -4 6 0
16 8 23 8 7 12 16 9 21 -3 5 0 9 5 9 6 0 11 11 11 25 0 14 5 25 10 25 6 0 9 3
8 7 -1 5 3 18 10 29 6 12 9 24 6 27 -12 11 20 82 44 102 44 35 59 37 82 8 11
-14 20 -36 20 -48 0 -13 7 -26 16 -29 17 -7 9 -28 -9 -24 -34 6 -87 -15 -112
-45 -43 -50 -73 -126 -69 -175 4 -69 15 -122 25 -122 5 0 9 -7 9 -15 0 -8 8
-23 18 -33 10 -10 21 -26 25 -35 8 -22 80 -66 131 -80 74 -22 210 -5 289 34
20 11 37 16 37 12 0 -5 4 -3 8 2 4 6 16 15 27 22 11 6 19 16 17 23 -1 6 2 9 8
5 14 -9 103 80 107 108 2 12 8 24 15 28 6 4 7 12 4 18 -4 6 0 11 9 11 9 0 14
4 11 9 -3 4 6 13 20 20 41 18 84 -8 112 -69 13 -28 27 -48 33 -45 5 4 9 -1 9
-9 0 -8 12 -24 28 -35 15 -12 36 -28 47 -37 46 -34 98 -65 103 -60 3 3 11 1
18 -4 6 -6 20 -12 31 -14 10 -2 38 -9 61 -16 48 -12 159 -15 195 -4 12 3 30
13 40 22 9 8 17 12 17 8 0 -4 7 -1 16 6 63 52 118 140 110 174 -4 13 -2 25 3
29 22 13 0 131 -35 186 -20 32 -84 89 -91 81 -2 -1 -19 -2 -38 -2 -24 0 -35 5
-35 14 0 8 3 16 8 18 4 2 18 24 31 50 19 39 26 46 41 38 10 -5 19 -7 22 -5 7
7 51 -43 55 -63 2 -9 6 -28 8 -42 2 -14 12 -43 21 -65 10 -22 17 -43 16 -47
-1 -5 1 -8 6 -8 4 0 13 -13 20 -28 15 -34 50 -52 114 -59 53 -6 91 11 145 64
19 18 37 33 42 33 9 0 31 45 31 65 0 7 6 16 13 18 9 4 9 6 -1 6 -9 1 -10 6 -3
19 7 14 6 25 -6 43 l-17 24 22 -19 22 -19 -15 36 c-8 20 -14 38 -13 40 6 6
-40 56 -46 50 -3 -3 -6 -2 -6 4 0 19 -121 24 -128 5 -2 -7 -7 -10 -12 -7 -31
19 -43 -91 -15 -129 25 -33 38 -37 75 -25 35 13 50 51 31 81 -15 25 -7 35 14
18 8 -7 15 -27 15 -44 0 -34 -44 -112 -64 -113 -6 -1 -26 -3 -43 -6 -18 -2
-33 0 -33 5 0 5 -4 7 -9 4 -12 -8 -69 88 -82 140 -6 24 -15 44 -20 44 -5 0 -9
6 -9 13 0 16 -47 67 -62 67 -6 0 -8 3 -4 7 3 4 -4 13 -16 21 -16 9 -17 12 -4
8 14 -5 17 -2 12 10 -5 14 -4 15 9 4 9 -7 18 -10 22 -6 3 3 0 6 -7 6 -10 0 -9
5 3 18 10 10 14 22 10 25 -3 4 -1 7 5 7 7 0 12 5 12 11 0 5 -6 7 -12 3 -7 -4
-5 2 5 14 11 11 16 26 12 32 -4 6 -1 18 7 27 9 12 10 17 2 20 -9 3 -8 12 3 33
8 17 12 40 8 52 -5 19 -4 20 5 8 9 -12 13 -12 17 -2 4 10 8 10 21 0 13 -11 15
-11 8 2 -4 8 4 2 18 -15 14 -16 26 -38 26 -47 0 -10 5 -18 10 -18 6 0 10 -10
10 -21 0 -24 65 -89 89 -90 9 0 25 -2 36 -4 20 -4 95 38 95 53 0 4 10 19 23
32 20 24 26 36 31 67 1 7 5 15 9 19 3 4 2 16 -4 27 -8 14 -8 18 1 12 23 -14
-3 69 -38 122 -28 43 -33 58 -29 92 4 42 12 54 59 102 24 24 28 35 27 85 -2
49 -6 62 -33 92 -28 29 -40 35 -85 39 -49 3 -55 1 -86 -30 -45 -45 -54 -81
-28 -115 25 -34 49 -39 74 -16 23 20 25 34 4 34 -9 0 -12 -6 -9 -17 3 -10 -2
-7 -10 7 -21 34 -20 37 13 55 28 14 31 14 50 -11 12 -15 21 -36 21 -48 0 -28
-34 -82 -61 -96 -81 -44 -90 -118 -30 -232 38 -72 39 -75 24 -107 -24 -49 -44
-36 -73 45 -26 74 -46 105 -93 141 -69 54 -204 -10 -232 -109 -2 -5 -4 -10 -5
-13 -1 -3 -3 -10 -4 -15 0 -6 -5 -14 -11 -18 -5 -4 -10 -16 -9 -27 0 -11 -4
-26 -9 -32 -5 -7 -7 -20 -3 -28 3 -8 2 -15 -2 -15 -4 0 -13 -14 -20 -30 -21
-46 -70 -64 -127 -45 -11 3 -23 6 -27 6 -5 -1 -16 7 -27 17 -10 9 -40 37 -67
62 -100 91 -179 207 -172 252 3 19 3 19 26 -2 12 -11 22 -18 22 -14 0 4 8 0
18 -8 9 -8 32 -20 51 -27 41 -13 44 -13 37 -3 -3 5 1 9 9 9 8 0 15 -4 15 -9 0
-5 4 -6 10 -3 5 3 10 1 10 -5 0 -6 5 -8 10 -5 6 4 17 1 25 -5 12 -10 15 -10
15 1 0 9 3 10 8 4 4 -5 14 -11 22 -11 8 -1 30 -5 48 -8 18 -4 32 -2 32 4 0 5
7 6 17 3 10 -4 14 -2 10 4 -4 6 4 9 22 7 18 -2 37 4 51 16 28 24 31 25 24 2
-3 -9 1 -6 9 8 9 14 13 29 10 34 -4 5 -1 6 6 2 6 -4 18 0 27 8 9 9 20 13 26
10 7 -4 8 -2 4 4 -4 7 3 22 16 34 13 13 36 41 50 63 15 22 40 58 56 80 15 22
37 61 47 87 11 25 24 44 29 41 5 -4 7 1 3 10 -4 11 -1 17 7 17 11 0 28 36 28
60 0 3 4 11 10 18 6 6 7 12 2 12 -4 0 1 7 12 16 10 8 13 13 7 9 -16 -8 -17 7
-2 22 8 8 7 13 -2 18 -8 6 -10 4 -4 -5 5 -9 4 -11 -3 -6 -9 5 -9 13 -2 26 9
16 7 18 -10 15 -11 -2 -18 0 -15 4 8 15 -18 27 -61 30 -22 1 -49 4 -60 6 -10
2 -22 4 -25 4 -4 1 -14 12 -23 26 -17 25 -17 25 28 44 42 18 58 40 61 81 2 30
-38 89 -69 101 -17 7 -35 14 -41 17 -5 2 -3 -1 5 -7 12 -8 11 -10 -7 -8 -12 0
-19 5 -17 9 3 4 0 8 -5 8 -6 0 -11 -6 -11 -12 0 -9 -4 -8 -10 2 -9 14 -15 7
-11 -14 1 -5 -5 -3 -14 4 -13 11 -14 10 -9 -5 5 -12 4 -16 -3 -12 -6 4 -18 -4
-27 -18 -9 -14 -13 -25 -9 -25 5 0 1 -5 -7 -10 -15 -9 -17 -15 -19 -59 -1 -19
-4 -22 -13 -13 -8 8 -20 7 -46 -3 -19 -8 -41 -15 -50 -15 -16 0 -72 -57 -72
-74 0 -16 -83 -86 -103 -86 -11 0 -15 4 -11 12 4 7 3 8 -5 4 -7 -5 -9 -16 -5
-28 4 -15 3 -19 -7 -14 -8 4 -6 1 4 -7 12 -10 28 -12 58 -7 39 7 52 17 108 85
26 32 88 75 96 67 5 -4 5 2 1 12 -5 15 -4 16 7 8 8 -7 18 -7 27 -2 27 17 35
11 64 -45 28 -52 76 -109 76 -89 0 5 4 4 8 -3 4 -7 28 -13 52 -14 25 -1 54 -9
65 -17 l20 -14 -20 6 c-15 5 -17 4 -9 -4 9 -9 4 -19 -16 -42 -15 -16 -34 -42
-41 -56 -8 -15 -17 -29 -20 -32 -3 -3 -20 -27 -39 -55 -41 -61 -99 -119 -143
-142 -22 -11 -66 -18 -140 -21 -117 -5 -173 6 -203 40 -10 10 -23 18 -31 18
-8 0 -12 4 -9 9 3 5 -5 16 -18 25 -34 22 -41 65 -21 133 10 32 19 65 20 73 2
8 4 16 5 18 2 1 3 5 4 10 3 13 38 106 50 132 13 30 17 35 54 79 28 33 30 34
52 18 18 -12 26 -13 42 -4 28 17 57 86 52 125 -3 30 -25 64 -39 62 -3 0 -18 6
-34 15 -25 12 -29 20 -25 42 7 37 8 38 56 24 38 -12 43 -11 56 6 18 24 57 110
67 148 12 44 15 174 5 180 -5 3 -6 13 -3 21 3 9 2 19 -3 23 -5 3 -18 23 -29
44 -11 20 -23 37 -27 37 -5 0 -8 7 -8 15 0 19 -97 123 -122 131 -10 3 -18 12
-18 20 0 8 -7 14 -16 14 -8 0 -13 4 -9 9 3 5 -4 12 -15 16 -11 3 -20 11 -20
16 0 9 -8 21 -37 54 -7 7 -13 20 -13 28 0 8 -7 18 -16 21 -8 3 -12 2 -9 -4 3
-6 2 -10 -4 -10 -5 0 -12 -13 -16 -29 -3 -16 -13 -35 -21 -42 -8 -6 -14 -18
-14 -25 0 -8 -4 -14 -10 -14 -5 0 -10 -8 -10 -18 0 -16 -44 -72 -56 -72 -3 0
-19 9 -35 20 -32 24 -89 34 -89 18 0 -6 -3 -9 -6 -5 -4 3 -21 -5 -38 -18 -37
-28 -76 -37 -91 -21 -10 10 -45 89 -45 101 0 3 0 6 -1 8 0 1 -2 12 -5 25 -9
48 -74 116 -74 77z m-500 -1006 c0 -10 -28 -19 -43 -13 -8 3 -14 11 -14 19 0
8 4 12 9 9 4 -3 8 0 8 5 0 7 7 7 20 -1 11 -7 20 -16 20 -19z m1580 17 c0 4 5
3 12 -4 9 -9 7 -16 -7 -32 l-18 -20 -15 22 c-12 16 -13 23 -4 26 7 2 9 9 5 15
-4 7 1 6 10 -2 9 -7 17 -10 17 -5z m-30 -1090 c0 -3 -4 -8 -10 -11 -5 -3 -10
-1 -10 4 0 6 5 11 10 11 6 0 10 -2 10 -4z m-475 -136 c8 0 15 -4 15 -10 0 -5
7 -10 15 -10 8 0 15 -3 15 -7 0 -7 30 -12 90 -15 14 -1 36 2 49 6 22 8 22 7
-5 -21 -52 -52 -125 -85 -139 -63 -4 6 -10 8 -14 6 -4 -3 -17 4 -29 14 -12 11
-25 20 -30 20 -9 0 -23 27 -39 77 -15 45 3 60 33 28 13 -14 30 -25 39 -25z
m-545 14 c0 -10 -27 -51 -47 -70 -12 -12 -19 -25 -16 -28 4 -3 0 -6 -9 -6 -8
0 -23 -9 -33 -20 -10 -11 -23 -16 -29 -13 -6 4 -23 6 -38 4 -20 -2 -35 6 -53
25 -25 27 -34 51 -15 39 6 -4 17 -2 25 5 9 7 15 8 19 1 4 -6 19 -3 40 9 19 10
53 24 76 31 23 7 44 18 47 25 4 11 33 9 33 -2z m1259 -96 c-8 -14 -14 -18 -17
-10 -4 13 17 46 25 38 3 -2 -1 -15 -8 -28z m-1573 -184 c28 -14 34 -22 34 -48
0 -18 -5 -37 -12 -44 -15 -15 -45 -16 -53 -1 -11 16 5 25 16 9 8 -13 11 -12
24 3 19 27 1 65 -34 69 -42 5 -77 -38 -72 -90 2 -24 64 -72 94 -72 65 0 104
43 101 111 -1 27 2 49 7 49 5 0 9 -4 9 -10 0 -5 7 -10 15 -10 8 0 15 -3 15 -7
0 -5 20 -8 45 -9 25 0 45 2 45 6 0 3 14 7 31 8 17 1 42 11 56 22 13 10 31 16
38 13 12 -4 12 -10 -2 -36 -16 -32 -123 -164 -123 -152 0 3 -10 -4 -23 -17
-34 -35 -66 -50 -115 -53 -25 -2 -48 -9 -53 -17 -7 -11 -9 -11 -9 0 0 8 -10
13 -22 11 -29 -2 -88 20 -88 33 0 5 -6 6 -12 2 -7 -4 -10 -4 -6 1 4 4 -2 19
-12 33 -11 13 -20 33 -20 43 0 10 -4 20 -9 23 -20 13 11 116 35 116 8 0 14 4
14 9 0 8 17 16 43 20 5 0 24 -6 43 -15z m749 -5 c3 6 12 11 18 10 9 0 8 -2 -1
-6 -6 -2 -10 -9 -7 -13 3 -5 12 -7 20 -3 8 3 15 0 15 -6 0 -6 13 -11 29 -11
17 0 32 -4 36 -9 9 -16 135 4 135 21 0 5 4 7 8 4 5 -3 7 -18 4 -34 -10 -73 57
-140 121 -121 45 13 78 55 73 93 -8 63 -24 80 -63 65 -29 -10 -31 -33 -3 -24
22 7 26 -5 8 -23 -18 -18 -36 -15 -48 8 -9 16 -6 25 13 44 14 14 33 23 43 21
11 -2 22 -4 25 -4 12 -2 44 -36 48 -51 12 -45 12 -114 0 -143 -45 -111 -129
-142 -243 -89 -117 55 -186 121 -242 231 -26 54 -31 76 -10 48 9 -12 16 -14
21 -8z"/>
</g>
</svg>
